HIERARCHY
ROOT Hips
{
	OFFSET 0.000000 0.000000 0.000000
	CHANNELS 6 Xposition Yposition Zposition Zrotation Yrotation Xrotation 
	JOINT LHipJoint
	{
		OFFSET 0.000000 0.000000 0.000000
		CHANNELS 3 Zrotation Yrotation Xrotation
		JOINT LeftUpLeg
		{
			OFFSET 1.363060 -1.794630 0.839290
			CHANNELS 3 Zrotation Yrotation Xrotation
			JOINT LeftLeg
			{
				OFFSET 2.448110 -6.726130 0.000000
				CHANNELS 3 Zrotation Yrotation Xrotation
				JOINT LeftFoot
				{
					OFFSET 2.562200 -7.039590 0.000000
					CHANNELS 3 Zrotation Yrotation Xrotation
					JOINT LeftToeBase
					{
						OFFSET 0.157640 -0.433110 2.322550
						CHANNELS 3 Zrotation Yrotation Xrotation
						End Site
						{
							OFFSET 0.000000 0.000000 0.000000
						}
					}
				}
			}
		}
	}
	JOINT RHipJoint
	{
		OFFSET 0.000000 0.000000 0.000000
		CHANNELS 3 Zrotation Yrotation Xrotation
		JOINT RightUpLeg
		{
			OFFSET -1.305520 -1.794630 0.839290
			CHANNELS 3 Zrotation Yrotation Xrotation
			JOINT RightLeg
			{
				OFFSET -2.542530 -6.985550 0.000000
				CHANNELS 3 Zrotation Yrotation Xrotation
				JOINT RightFoot
				{
					OFFSET -2.568260 -7.056230 0.000000
					CHANNELS 3 Zrotation Yrotation Xrotation
					JOINT RightToeBase
					{
						OFFSET -0.164730 -0.452590 2.363150
						CHANNELS 3 Zrotation Yrotation Xrotation
						End Site
						{
							OFFSET 0.000000 0.000000 0.000000
						}
					}
				}
			}
		}
	}
	JOINT LowerBack
	{
		OFFSET 0.000000 0.000000 0.000000
		CHANNELS 3 Zrotation Yrotation Xrotation
		JOINT Spine
		{
			OFFSET 0.028270 2.035590 -0.193380
			CHANNELS 3 Zrotation Yrotation Xrotation
			JOINT Spine1
			{
				OFFSET 0.056720 2.048850 -0.042750
				CHANNELS 3 Zrotation Yrotation Xrotation
				JOINT Neck
				{
					OFFSET 0.000000 0.000000 0.000000
					CHANNELS 3 Zrotation Yrotation Xrotation
					JOINT Neck1
					{
						OFFSET -0.054170 1.746240 0.172020
						CHANNELS 3 Zrotation Yrotation Xrotation
						JOINT Head
						{
							OFFSET 0.104070 1.761360 -0.123970
							CHANNELS 3 Zrotation Yrotation Xrotation
							End Site
							{
								OFFSET 0.000000 0.000000 0.000000
							}
						}
					}
				}
				JOINT LeftShoulder
				{
					OFFSET 0.000000 0.000000 0.000000
					CHANNELS 3 Zrotation Yrotation Xrotation
					JOINT LeftArm
					{
						OFFSET 3.362410 1.200890 -0.311210
						CHANNELS 3 Zrotation Yrotation Xrotation
						JOINT LeftForeArm
						{
							OFFSET 4.983000 -0.000000 -0.000000
							CHANNELS 3 Zrotation Yrotation Xrotation
							JOINT LeftHand
							{
								OFFSET 3.483560 -0.000000 -0.000000
								CHANNELS 3 Zrotation Yrotation Xrotation
								JOINT LeftFingerBase
								{
									OFFSET 0.000000 0.000000 0.000000
									CHANNELS 3 Zrotation Yrotation Xrotation
									JOINT LeftHandIndex1
									{
										OFFSET 0.715260 -0.000000 -0.000000
										CHANNELS 3 Zrotation Yrotation Xrotation
										End Site
										{
											OFFSET 0.000000 0.000000 0.000000
										}
									}
								}
								JOINT LThumb
								{
									OFFSET 0.000000 0.000000 0.000000
									CHANNELS 3 Zrotation Yrotation Xrotation
									End Site
									{
										OFFSET 0.000000 0.000000 0.000000
									}
								}
							}
						}
					}
				}
				JOINT RightShoulder
				{
					OFFSET 0.000000 0.000000 0.000000
					CHANNELS 3 Zrotation Yrotation Xrotation
					JOINT RightArm
					{
						OFFSET -3.136600 1.374050 -0.404650
						CHANNELS 3 Zrotation Yrotation Xrotation
						JOINT RightForeArm
						{
							OFFSET -5.241900 -0.000000 -0.000000
							CHANNELS 3 Zrotation Yrotation Xrotation
							JOINT RightHand
							{
								OFFSET -3.444170 -0.000000 -0.000000
								CHANNELS 3 Zrotation Yrotation Xrotation
								JOINT RightFingerBase
								{
									OFFSET 0.000000 0.000000 0.000000
									CHANNELS 3 Zrotation Yrotation Xrotation
									JOINT RightHandIndex1
									{
										OFFSET -0.622530 -0.000000 -0.000000
										CHANNELS 3 Zrotation Yrotation Xrotation
										End Site
										{
											OFFSET 0.000000 0.000000 0.000000
										}
									}
								}
								JOINT RThumb
								{
									OFFSET 0.000000 0.000000 0.000000
									CHANNELS 3 Zrotation Yrotation Xrotation
									End Site
									{
										OFFSET 0.000000 0.000000 0.000000
									}
								}
							}
						}
					}
				}
			}
		}
	}
}
MOTION
Frames: 10
Frame Time: 0.008333
24.786653 14.877636 2.590454 -45.632660 -83.783755 85.215629 -7.798085 -2.352887 2.981526 -9.081700 -9.215760 -93.738947 -0.947104 4.142001 49.613496 2.129455 8.470880 -2.091220 1.933899 -0.000000 -10.034901 10.586429 -3.245038 -4.600039 14.620523 -8.939679 -19.752844 3.051269 -2.714776 41.227054 0.014148 4.683782 -14.241986 -0.285200 -0.000000 -77.723700 -4.859015 0.206056 5.168454 -2.015101 0.530971 -1.953692 -6.095954 0.557151 -0.051898 11.661533 -12.084490 -9.909875 -0.987588 -0.005229 -1.104659 0.000000 0.000000 0.000000 7.922489 16.906430 2.965449 -70.801400 34.601062 19.151165 -0.501026 -80.206407 0.010459 -7.079266 5.904306 -0.369771 0.092641 0.013607 -0.000000 0.000000 0.000000 0.000000 0.000000 0.000000 0.000000 5.627719 -5.224827 -0.297661 69.910536 7.276167 23.647471 179.366511 75.640360 179.956929 -6.320129 3.838480 -0.245881 0.169825 -0.523360 -0.000000 0.000000 0.000000 0.000000 0.000000 0.000000 0.000000 
24.602391 14.859612 2.602529 -43.602545 -83.665883 82.963328 -7.789143 -2.484731 2.767574 -9.227716 -9.115475 -93.710718 -0.782328 4.315312 51.845847 2.112580 8.217796 -3.292647 1.643400 -0.000000 -9.377500 10.661500 -3.361984 -4.638736 14.472089 -9.283870 -19.634140 2.822733 -2.866586 42.236831 0.041837 4.295687 -12.340720 -0.193200 -0.000000 -79.274300 -5.224249 0.130775 5.419023 -2.112898 0.463570 -1.912373 -6.164847 0.493118 -0.141753 11.762988 -11.966274 -9.846992 -1.018351 -0.008087 -1.094692 0.000000 0.000000 0.000000 7.687647 16.548631 2.975099 -70.467591 33.974979 19.146334 -0.506203 -80.158527 0.010726 -7.013423 5.922900 -0.367255 0.091201 0.016616 -0.000000 0.000000 0.000000 0.000000 0.000000 0.000000 0.000000 5.787544 -5.114593 -0.265016 70.329449 7.066952 23.717547 179.371174 75.738930 179.958591 -6.051492 3.819225 -0.234315 0.160934 -0.523844 -0.000000 0.000000 0.000000 0.000000 0.000000 0.000000 0.000000 
24.420378 14.843319 2.615400 -41.856610 -83.556708 80.994484 -7.787048 -2.602211 2.567122 -9.391167 -9.002569 -93.572808 -0.646509 4.464037 53.904959 2.107448 7.979056 -4.708005 1.335500 0.000000 -8.961801 10.741484 -3.469309 -4.688723 14.332157 -9.677547 -19.646071 2.567937 -3.029844 43.398354 0.055654 3.857899 -10.212637 -0.101600 0.000001 -80.753300 -5.574579 0.060185 5.665127 -2.207523 0.398945 -1.869873 -6.231335 0.431894 -0.221719 11.844855 -11.836670 -9.758335 -1.056093 -0.011983 -1.076962 0.000000 0.000000 0.000000 7.418725 16.186830 2.976590 -70.134185 33.255012 19.101836 -0.513076 -80.079152 0.010969 -6.936450 5.933962 -0.363635 0.089287 0.019996 -0.000000 0.000000 0.000000 0.000000 0.000000 0.000000 0.000000 5.968368 -5.005493 -0.237453 70.757380 6.878255 23.789995 179.380878 75.952226 179.960309 -5.787002 3.778753 -0.221854 0.152004 -0.522845 -0.000000 0.000000 0.000000 0.000000 0.000000 0.000000 0.000000 
24.240734 14.828560 2.629092 -40.433959 -83.453460 79.360328 -7.790021 -2.703914 2.384577 -9.557707 -8.874451 -93.356729 -0.534256 4.591651 55.789248 2.114737 7.774423 -6.232544 1.029000 0.000000 -8.785201 10.829128 -3.562574 -4.742153 14.208572 -10.096558 -19.803378 2.286231 -3.199360 44.704942 0.049602 3.359594 -7.842376 -0.014900 0.000000 -82.050700 -5.904236 -0.005547 5.893065 -2.297402 0.337252 -1.828798 -6.295205 0.373497 -0.289638 11.907942 -11.697122 -9.646757 -1.100031 -0.016816 -1.052037 0.000000 0.000000 0.000000 7.123923 15.826629 2.970683 -69.810028 32.445716 19.009163 -0.522140 -79.959798 0.011179 -6.847715 5.935877 -0.358812 0.086834 0.023735 -0.000000 0.000000 0.000000 0.000000 0.000000 0.000000 0.000000 6.168543 -4.899307 -0.215568 71.193631 6.707291 23.865409 179.395652 76.279517 179.962089 -5.525160 3.719012 -0.208595 0.143037 -0.520417 -0.000000 0.000000 0.000000 0.000000 0.000000 0.000000 0.000000 
24.063667 14.815234 2.643507 -39.339493 -83.354175 78.074792 -7.795827 -2.790063 2.222295 -9.716961 -8.730578 -93.094108 -0.439810 4.701507 57.504006 2.133795 7.616477 -7.770256 0.737200 0.000000 -8.830400 10.925092 -3.636734 -4.792303 14.109702 -10.514706 -20.114743 1.980503 -3.369045 46.145811 0.016401 2.787201 -5.245702 0.058100 0.000000 -82.998400 -6.209139 -0.067289 6.093071 -2.381304 0.277852 -1.791051 -6.356276 0.317190 -0.344481 11.953504 -11.549057 -9.516097 -1.149422 -0.022462 -1.020886 0.000000 0.000000 0.000000 6.811860 15.471186 2.958591 -69.503158 31.552087 18.860932 -0.533862 -79.792250 0.011344 -6.746177 5.928327 -0.352682 0.083782 0.027812 -0.000000 0.000000 0.000000 0.000000 0.000000 0.000000 0.000000 6.386749 -4.797459 -0.199417 71.636435 6.549210 23.941420 179.415490 76.718265 179.963921 -5.265844 3.643972 -0.194939 0.134047 -0.516690 -0.000000 0.000000 0.000000 0.000000 0.000000 0.000000 0.000000 
23.889377 14.803280 2.658501 -38.549805 -83.256829 77.122050 -7.802483 -2.861924 2.080848 -9.862092 -8.571374 -92.812764 -0.357730 4.796726 59.059999 2.162810 7.510667 -9.243742 0.468200 0.000000 -9.059100 11.027866 -3.687001 -4.833991 14.044547 -10.906149 -20.582114 1.657906 -3.532518 47.707192 -0.050861 2.125198 -2.478406 0.103299 0.000000 -83.385100 -6.486647 -0.126563 6.259467 -2.458382 0.219599 -1.757830 -6.414475 0.261756 -0.386461 11.983257 -11.393479 -9.370557 -1.203669 -0.028793 -0.984714 0.000000 0.000000 0.000000 6.491302 15.120676 2.941834 -69.220795 30.579446 18.650371 -0.548591 -79.570016 0.011457 -6.630270 5.911698 -0.345148 0.080093 0.032216 -0.000000 0.000000 0.000000 0.000000 0.000000 0.000000 0.000000 6.622207 -4.700592 -0.188554 72.083473 6.397606 24.013614 179.440289 77.262484 179.965774 -5.011389 3.558154 -0.181383 0.125098 -0.511849 -0.000000 0.000000 0.000000 0.000000 0.000000 0.000000 0.000000 
23.718013 14.792742 2.673924 -38.022768 -83.158979 76.464122 -7.808515 -2.921354 1.958972 -9.990501 -8.398231 -92.534386 -0.283545 4.880151 60.471651 2.198910 7.454921 -10.599428 0.226100 0.000000 -9.417200 11.134054 -3.709670 -4.864354 14.021560 -11.248433 -21.200778 1.329345 -3.684475 49.375276 -0.156638 1.356419 0.359229 0.100800 -0.000001 -82.988700 -6.735513 -0.185176 6.391429 -2.528180 0.161122 -1.729478 -6.469904 0.205795 -0.416929 11.999016 -11.231456 -9.214328 -1.262261 -0.035682 -0.944835 0.000000 0.000000 0.000000 6.169844 14.772685 2.922002 -68.968414 29.533940 18.371858 -0.566516 -79.288951 0.011510 -6.497224 5.888562 -0.336509 0.075741 0.036917 -0.000000 0.000000 0.000000 0.000000 0.000000 0.000000 0.000000 6.874191 -4.609149 -0.182111 72.531924 6.245930 24.076430 179.469804 77.903492 179.967603 -4.765895 3.467316 -0.168230 0.116286 -0.506132 -0.000000 0.000000 0.000000 0.000000 0.000000 0.000000 0.000000 
23.549890 14.783703 2.689631 -37.708140 -83.058590 76.050322 -7.813205 -2.970558 1.853767 -10.102653 -8.211969 -92.271773 -0.214129 4.954236 61.754895 2.238668 7.441087 -11.808556 0.011601 -0.000000 -9.846100 11.239106 -3.703050 -4.883273 14.047599 -11.525980 -21.961331 1.007629 -3.822216 51.139362 -0.300962 0.463590 3.125308 0.026900 -0.000000 -81.619000 -6.955383 -0.244986 6.492884 -2.590451 0.100967 -1.705210 -6.522437 0.147886 -0.437117 12.002637 -11.064415 -9.051898 -1.324670 -0.042988 -0.902734 0.000000 0.000000 0.000000 5.856646 14.426863 2.900728 -68.749975 28.417116 18.025595 -0.587855 -78.943642 0.011495 -6.342969 5.861500 -0.326466 0.070694 0.041898 -0.000000 0.000000 0.000000 0.000000 0.000000 0.000000 0.000000 7.142105 -4.523918 -0.179277 72.977518 6.089386 24.124185 179.503739 78.632641 179.969349 -4.535522 3.377424 -0.156074 0.107746 -0.499775 -0.000000 0.000000 0.000000 0.000000 0.000000 0.000000 0.000000 
23.385380 14.776307 2.705495 -37.555246 -82.954032 75.826406 -7.816903 -3.011713 1.761417 -10.200912 -8.012631 -92.028592 -0.147978 5.020968 62.924914 2.278587 7.456184 -12.866321 -0.177000 -0.000000 -10.295800 11.337975 -3.668375 -4.893116 14.127917 -11.731670 -22.851513 0.704652 -3.946510 52.992523 -0.478875 -0.569523 5.647588 -0.140700 -0.000000 -79.168900 -7.145479 -0.307321 6.571238 -2.645186 0.038037 -1.684718 -6.572991 0.086888 -0.452807 11.994819 -10.891509 -8.883688 -1.391040 -0.050698 -0.858702 0.000000 0.000000 0.000000 5.548444 14.064202 2.878569 -68.565157 27.253666 17.594768 -0.611900 -78.546597 0.011406 -6.163547 5.835649 -0.315317 0.065011 0.047091 -0.000000 0.000000 0.000000 0.000000 0.000000 0.000000 0.000000 7.425415 -4.442963 -0.177488 73.416240 5.919563 24.149675 179.541538 79.440641 179.970950 -4.327211 3.294333 -0.145319 0.099635 -0.493026 -0.000000 0.000000 0.000000 0.000000 0.000000 0.000000 0.000000 
23.224862 14.770693 2.721430 -37.514168 -82.844890 75.736083 -7.820264 -3.046679 1.677469 -10.289872 -7.800380 -91.800308 -0.085000 5.081822 63.995424 2.315729 7.485529 -13.786776 -0.343099 -0.000001 -10.732900 11.426876 -3.609298 -4.898502 14.263066 -11.868942 -23.859114 0.428420 -4.061892 54.932202 -0.681545 -1.753433 7.747852 -0.414700 0.000000 -75.656800 -7.307471 -0.373587 6.636677 -2.692628 -0.028870 -1.665150 -6.620848 0.021771 -0.462663 11.977643 -10.716083 -8.714797 -1.460705 -0.058642 -0.814497 0.000000 0.000000 0.000000 5.258712 13.695912 2.856841 -68.415982 26.028902 17.094304 -0.639049 -78.085772 0.011220 -5.949662 5.814206 -0.302664 0.058586 0.052497 -0.000000 0.000000 0.000000 0.000000 0.000000 0.000000 0.000000 7.724252 -4.369732 -0.177044 73.842231 5.738579 24.151211 179.582753 80.319541 179.972340 -4.149577 3.223657 -0.136364 0.092135 -0.486067 -0.000000 0.000000 0.000000 0.000000 0.000000 0.000000 0.000000 
